<svg height="512" viewBox="0 0 60 60" width="512" xmlns="http://www.w3.org/2000/svg"><g id="Page-1" fill="none" fill-rule="evenodd"><g id="028---Dice" fill-rule="nonzero"><path id="Shape" d="m40.94 19.51c.038633.3098011-.0684658.6200185-.29.84l-5.53 5.53h-.01l-5.22-.32v-.01l-2.89-11.55 11.82-9.85c.1501036.15522844.2449794.35552171.27.57l1.73 13.87z" fill="#e8edfc"/><path id="Shape" d="m38.82 4.15-11.82 9.85-15.82-2.97c.0569935-.1689863.1610775-.3181735.3-.43l11.16-9.3c.2272463-.19091954.5289581-.26818718.82-.21l14.82 2.78c.2038421.03754841.3918546.13503639.54.28z" fill="#e8edfc"/><path id="Shape" d="m29.89 25.55-8.31-.51c-.1727031-.0134757-.3457647.0211366-.5.1-.1649904.069721-.3046093.1883971-.4.34l-1.53 2.3-3.52-.66c-.384095-.0735005-.6915788-.3615234-.79-.74l-.99-3.97-2.7-10.8c-.0453361-.1922545-.0349295-.3934489.03-.58l15.82 2.97z" fill="#cad9fc"/><path id="Shape" d="m50 42.13v8.19c.0075332 2.845098-1.713957 5.4095248-4.35 6.48-3.76 1.5-10.26 2.91-20.65 1.8-19-2.02-19-10.43-19-12.46v-12.14c-.06971469 2.6460393 1.05384631 5.1832309 3.06 6.91v.01c1.72 1.59 4.4 3.12 8.6 4.23v.01c2.1162714.5487239 4.2681235.9496901 6.44 1.2.3.03.6.07.9.1 4.7853787.5848643 9.6268971.537794 14.4-.14 7.81-1.25 10.6-4.19 10.6-4.19z" fill="#cad9fc"/><path id="Shape" d="m47 44.074v6.246c.0075332 2.845098-1.713957 5.4095248-4.35 6.48-3.85632 1.4262127-7.9334195 2.1631032-12.045 2.177 7.2.181 12.013-.968 15.045-2.177 2.636043-1.0704752 4.3575332-3.634902 4.35-6.48l.0000246-8.19c-.8878407.806589-1.9011068 1.4631854-3.0000246 1.944z" fill="#a4c2f7"/><path id="Shape" d="m29 39-4.9 7.36c-2.1718765-.2503099-4.3237286-.6512761-6.44-1.2v-.01l-4.35-7.61c-.1908535-.3271334-.1792202-.7342973.03-1.05l3.04-4.56 2.77-4.15 1.53-2.3c.0953907-.1516029.2350096-.270279.4-.34z" fill="#e8edfc"/><path id="Shape" d="m19.15 27.78-2.77 4.15c-2.0122891-.146807-3.985081.6122411-5.38 2.07-1.7521775 1.8393129-2.47881354 4.4274856-1.94 6.91-2.00615369-1.7267691-3.12971469-4.2639607-3.06-6.91 0-2.74.84-9.66 7.85-11.59l.99 3.97c.0984212.3784766.405905.6664995.79.74z" fill="#7facfa"/><path id="Shape" d="m57 18s-5.77 7.93-18.53 10.93l-1.21-2.42c-.1652271-.3124662-.4778461-.5196234-.83-.55l-1.31-.08 5.53-5.53c.2215342-.2199815.328633-.5301989.29-.84l-.12-.92c4.5535783-1.0224313 8.5493448-3.7351207 11.18-7.59l-1 7z" fill="#a4c2f7"/><path id="Shape" d="m48 18h3l1-7c-1.003972 1.4425756-2.1988494 2.7424085-3.552 3.864z" fill="#7facfa"/><path id="Shape" d="m54 18s-4.979 6.824-15.893 10.2l.363.726c12.76-2.996 18.53-10.926 18.53-10.926z" fill="#7facfa"/><path id="Shape" d="m43.83 39.99-14.83-.99-7.92-13.86c.1542353-.0788634.3272969-.1134757.5-.1l8.31.51v.01l5.22.32h.01l1.31.08c.3521539.0303766.6647729.2375338.83.55l1.21 2.42 4.03 8.08h.01l1.22 2.45c.0827669.1636607.1174408.3474322.1.53z" fill="#e8edfc"/><path id="Shape" d="m43.83 39.99c-.0132926.1816127-.0793285.3553913-.19.5l-4.24 5.83c-4.7731029.677794-9.6146213.7248643-14.4.14-.3-.03-.6-.07-.9-.1l4.9-7.36z" fill="#cad9fc"/><path id="Shape" d="m50 42.1v.02s-2.79 2.95-10.6 4.2l4.24-5.83c.1106715-.1446087.1767074-.3183873.19-.5.0174408-.1825678-.0172331-.3663393-.1-.53l-1.22-2.45c5.6.16 7.49 3.05 7.49 5.09z" fill="#7facfa"/><path id="Shape" d="m44.322 45.952c.128-.027.254-.055.382-.084-.125.032-.253.057-.382.084z" fill="#fff"/><path id="Shape" d="m13.85 22.41c-7.01 1.93-7.85 8.85-7.85 11.59v12.14c0 2.03 0 10.44 19 12.46 2.7952395.3024069 5.6070901.4239932 8.418.364-1.86-.051-3.686-.179-5.418-.364-19-2.02-19-10.43-19-12.46v-5.757c-.08607787-.7201035-.08607787-1.4478965 0-2.168v-4.215c0-2.189.536-7.046 4.326-9.895" fill="#fff"/><g fill="#428dff"><circle id="Oval" cx="36.001" cy="12" r="1"/><circle id="Oval" cx="33.001" cy="22" r="1"/><circle id="Oval" cx="35.001" cy="29" r="1"/><circle id="Oval" cx="38.001" cy="36" r="1"/><circle id="Oval" cx="32.001" cy="36" r="1"/><circle id="Oval" cx="37.001" cy="43" r="1"/><circle id="Oval" cx="21.001" cy="32" r="1"/><circle id="Oval" cx="21.001" cy="37" r="1"/><circle id="Oval" cx="21.001" cy="42" r="1"/><circle id="Oval" cx="28.001" cy="29" r="1"/><circle id="Oval" cx="31.001" cy="6" r="1"/><circle id="Oval" cx="24.001" cy="5" r="1"/><circle id="Oval" cx="26.001" cy="10" r="1"/><circle id="Oval" cx="19.001" cy="9" r="1"/><circle id="Oval" cx="16.001" cy="16" r="1"/><circle id="Oval" cx="20.001" cy="20" r="1"/></g><path id="Shape" d="m9.88 52.439-1.335 1.49c-1.10742116-.9712417-2.00710202-2.1563034-2.645-3.484-.62341748-1.3461347-.93124034-2.8168439-.9-4.3h2c-.03729035 2.4247544 1.02076833 4.7370535 2.88 6.294z" fill="#fff"/><path id="Shape" d="m58.759 31.03-2.759.689v-2.719c0-.5522847-.4477153-1-1-1s-1 .4477153-1 1v2.719l-2.758-.689c-.3498693-.0959435-.72426.0051249-.9783171.2641012-.2540571.2589762-.3479281.635236-.2452935.9832013.1026346.3479652.385675.6130526.7396106.6926975l2.542.63-2.1 2.8c-.3313708.4418278-.2418278 1.0686292.2 1.4s1.0686292.2418278 1.4-.2l2.2-2.934 2.2 2.934c.2143594.2858125.5649147.4355547.9196152.3928203.3547006-.0427344.6596589-.2714531.8-.6.1403412-.3285469.0947442-.7070078-.1196152-.9928203l-2.1-2.8 2.538-.635c.3539356-.0796449.636976-.3447323.7396106-.6926975.1026346-.3479653.0087636-.7242251-.2452935-.9832013-.2540571-.2589763-.6284478-.3600447-.9783171-.2641012z" fill="#428dff"/><path id="Shape" d="m.031 3.757c-.06440874.25739753-.02388135.52984064.11265929.75734587.13654065.22750522.35789967.39141954.61534071.45565413l2.541.635-2.1 2.795c-.21435936.28581247-.25995644.66427345-.11961526.99282033.14034119.32854689.44529947.5572656.80000001.60000001.35470055.04273436.7052559-.10700786.91961525-.39282034l2.2-2.934 2.2 2.934c.33137085.4418278.9581722.5313708 1.4.2.4418278-.33137085.53137085-.9581722.2-1.4l-2.1-2.795 2.543-.635c.35393556-.0796449.63697601-.34473226.73961059-.69269754.10263461-.34796528.00876358-.72422508-.24529352-.9832013s-.62844776-.36004469-.97831707-.26410116l-2.759.689v-2.719c0-.55228475-.44771525-1-1-1s-1 .44771525-1 1v2.719l-2.757-.689c-.53538451-.13355582-1.07776782.19178466-1.212.727z" fill="#428dff"/><path id="Shape" d="m22 .533-11.156 9.297c-.5719889.502968-.824892 1.277388-.66 2.021l2.476 9.907c-7.071 2.542-7.66 9.95-7.66 12.242v12.144c0 .5522847.44771525 1 1 1s1-.4477153 1-1v-6.007c.4160772.5473245.88062182 1.0560477 1.388 1.52 2.597419 2.1891993 5.6848277 3.7191819 9 4.46l.025.007c2.1867185.5639174 4.4101169.9745812 6.654 1.229.012 0 .023.005.035.005.264.032.522.066.792.095 13.968 1.49 21.127-1.493 24.1-3.35v6.212c.0195849 2.4405997-1.4572022 4.644274-3.722 5.554-3.5 1.4-9.849 2.839-20.172 1.739-2.7487421-.2826855-5.4678783-.8026237-8.127-1.554-2.5954539-.690453-5.0152246-1.922832-7.1-3.616-.40510829-.3436072-1.00518718-.322377-1.385.049-.19553584.192139-.30145349.4575243-.29194714.7314975.00950636.2739731.13356388.5313788.34194714.7095025 2.3023617 1.8913208 4.9821423 3.2690553 7.86 4.041 2.7813229.7892609 5.6260539 1.3349861 8.502 1.631 2.3765948.2596237 4.7652762.3931442 7.156.4 4.758313.1347981 9.4989462-.6351731 13.97-2.269 3.0252711-1.2133869 4.9988875-4.1555593 4.974-7.415v-8.223c0-2.712-2.475-5.683-7.857-6.045l-3.233-6.467c12.116-3.243 17.663-10.667 17.9-10.993.2212598-.3043676.2529271-.7071763.0819478-1.0423802-.1709793-.3352038-.5156562-.5460486-.8919478-.5456198h-4.846l.837-5.858c.0650441-.4576593-.1920705-.9002553-.6218543-1.0704573-.4297838-.17020195-.9202128-.0236465-1.1861457.3544573-2.2753936 3.3330565-5.6352572 5.774859-9.508 6.91l-1.591-12.736c-.1260833-.85460779-.7708016-1.54041899-1.616-1.719l-14.819-2.781c-.5867388-.1089096-1.19146.04988013-1.649.433zm1.28 1.537 13.45 2.521-10.007 8.339-13.446-2.524zm16.667 17.57-5.216 5.216-4.048-.256-2.56-10.236 10.113-8.424zm1.621 17.729.006.012.753 1.506-12.727-.849-6.811-11.924 7.08.442c.0073225.0005649.0146775.0005649.022 0h.009l6.461.4zm-17.954 7.919c-1.784575-.2302036-3.5542353-.5641018-5.3-1l-4.141-7.251 5.827-8.737.008-.011.925-1.388 6.894 12.059zm-13.606-4.876c-.39343964-2.0633728.2405885-4.1892319 1.7-5.7.7363695-.7610665 1.6626065-1.3116993 2.683-1.595l-1.879 2.819c-.4211082.6293528-.4493895 1.4429247-.073 2.1l3.1 5.419c-2.016543-.6622792-3.892165-1.6941935-5.531-3.043zm2.341-28.145 13.838 2.6 2.4 9.607-6.949-.434c-.3665355-.0210145-.7317224.0599843-1.055.234-.295298.1538864-.5478326.3785907-.735.654l-1.166 1.748-2.868-.539zm.8 11.437.729 2.917c.1895344.7575244.8026177 1.3354628 1.57 1.48l2.031.382-1.628 2.443c-2.0967042-.0002185-4.1028281.8545961-5.555 2.367-1.26722803 1.2637551-2.07242102 2.9171129-2.286 4.694-.67648129-1.2190207-1.02452486-2.5929313-1.01-3.987 0-1.928.471-8.11 6.147-10.3zm12.7 21.833 3.661-5.5 12.614.842-3.271 4.494c-4.3111271.5842524-8.677508.6393275-13.002.164zm23.106-3.854c-2.1559014 1.5486702-4.6190094 2.6167104-7.223 3.132l2.718-3.735c.2178066-.2992228.3483145-.6530133.377-1.022v-.008c.0286295-.3586976-.040487-.7184489-.2-1.041l-.42-.841c3.337.541 4.531 2.3 4.75 3.515zm1.558-27.348-.5 3.523c-.0411093.2865602.0439826.5768733.2332815.7958999.1892988.2190266.4642258.3452704.7537185.3461001h3.777c-4.3787346 4.2815833-9.827836 7.3074803-15.777 8.761l-.847-1.693c-.2001867-.3888831-.5232691-.7007156-.919-.887l4.128-4.127c.4390468-.4371094.6497226-1.0536133.57-1.668l-.006-.045c3.2531175-.8850148 6.2155799-2.611652 8.589-5.006z" fill="#428dff"/><path id="Shape" d="m6.83 51.043c-.55228475.0027614-1.00223858-.4427153-1.005-.995s.44271525-1.0022386.995-1.005h.01c.55228475 0 1 .4477153 1 1s-.44771525 1-1 1z" fill="#428dff"/></g></g></svg>